# xmcd CD database file
#
# Track frame offsets:
#	150
#	16147
#	27210
#	47150
#	64955
#	87800
#	101640
#	120490
#	144547
#
# Disc length: 2167 seconds
#
# Revision: 7
# Processed by: cddbd v1.5.1PL0 Copyright (c) Steve Scherf et al.
# Submitted via: CDex 1.50
#
DISCID=70087509
DTITLE=Muddy Waters - The London Muddy Waters Sessions
DYEAR=1972
DGENRE=Blues
TTITLE0=Blind Man Blues
TTITLE1=Key To The Highway
TTITLE2=Young Fashioned Ways
TTITLE3=I'm Gonna Move To The Outskirts Of Town
TTITLE4=Who's Gonna Be Your Sweet Man When I'm Gone
TTITLE5=Walkin' Blues
TTITLE6=I'm Ready
TTITLE7=Sad Sad Day
TTITLE8=I Don't Know Why
EXTD=YEAR: 1972
EXTT0=
EXTT1=
EXTT2=
EXTT3=
EXTT4=
EXTT5=
EXTT6=
EXTT7=
EXTT8=
PLAYORDER=
